<?xml version="1.0" encoding="UTF-8"?>
<svg id="_Слой_2" data-name="Слой 2" xmlns="http://www.w3.org/2000/svg" viewBox="0 0 312.51 506.34">
  <defs>
    <style>
      .cls-1 {
        fill: #333;
      }

      .cls-2 {
        fill: #fff;
      }

      .cls-3 {
        fill: #005dd2;
      }

      .cls-4 {
        fill: #55c5ff;
      }
    </style>
  </defs>
  <g id="_Слой_1-2" data-name="Слой 1">
    <g>
      <path class="cls-4" d="M154.13,124.25v364.11l-18.14-4.19c-72.9-16.86-125.99-99.35-125.99-195.69v-127.15l144.12-37.07Z"/>
      <path class="cls-3" d="M154.13,124.25v364.11s18.14-4.19,18.14-4.19c72.9-16.86,125.99-99.35,125.99-195.69v-127.15s-144.12-37.07-144.12-37.07Z"/>
      <g>
        <path d="M154.13,498.61l-20.41-4.72C56.24,475.99,0,389.59,0,288.46v-134.89l154.13-39.62,154.13,39.62v134.89c0,101.13-56.24,187.53-133.72,205.44l-20.41,4.72ZM19.97,169.06v119.4c0,91.93,49.73,170.14,118.25,185.98l15.91,3.68,15.9-3.68c68.52-15.84,118.25-94.05,118.25-185.98v-119.4l-134.16-34.49L19.97,169.06Z"/>
        <g>
          <g>
            <path d="M122.81,197.23h-32.36c-10.33,0-18.42-8.09-18.42-18.42V63.57h-2.92c-10.33,0-18.42-8.09-18.42-18.42v-25.79c0-10.33,8.09-18.42,18.42-18.42h75.03c10.33,0,18.42,8.09,18.42,18.42v25.79c0,10.33-8.09,18.42-18.42,18.42h-2.92v115.23c0,10.33-8.09,18.42-18.42,18.42ZM104.19,165.08h4.89V33.09h-4.89v131.98Z"/>
            <path d="M208.39,198.17h-32.83c-25.15,0-41.4-16.25-41.4-41.4V41.4c0-25.15,16.25-41.4,41.4-41.4h32.83c25.15,0,41.4,16.25,41.4,41.4v48.3c0,3.45-.9,6.65-2.49,9.38,1.58,2.73,2.49,5.93,2.49,9.38v48.3c0,25.15-16.25,41.4-41.4,41.4ZM201.53,166.01h6.86c7.52,0,9.25-1.73,9.25-9.25v-34.57h-4.89v26.13c0,8.09-4.48,14.73-11.21,17.69ZM175.57,32.15c-7.52,0-9.25,1.73-9.25,9.25v115.37c0,7.52,1.73,9.25,9.25,9.25h6.86c-6.74-2.96-11.22-9.6-11.22-17.69V49.84c0-8.09,4.47-14.72,11.21-17.69h-6.85ZM212.75,75.97h4.89v-34.57c0-7.52-1.73-9.25-9.25-9.25h-6.85c6.74,2.96,11.21,9.6,11.21,17.69v26.13Z"/>
          </g>
          <g>
            <path class="cls-2" d="M66.77,19.36c0-1.41.94-2.34,2.34-2.34h75.03c1.41,0,2.34.94,2.34,2.34v25.79c0,1.41-.94,2.34-2.34,2.34h-18.99v131.31c0,1.41-.94,2.34-2.34,2.34h-32.36c-1.41,0-2.34-.94-2.34-2.34V47.5h-18.99c-1.41,0-2.34-.94-2.34-2.34v-25.79Z"/>
            <path class="cls-2" d="M175.57,182.09c-16.42,0-25.32-8.91-25.32-25.32V41.4c0-16.42,8.91-25.32,25.32-25.32h32.83c16.42,0,25.32,8.91,25.32,25.32v48.3c0,1.41-.94,2.34-2.34,2.34h-32.36c-1.41,0-2.34-.94-2.34-2.34v-39.86c0-2.11-1.17-3.28-3.28-3.28h-2.81c-2.11,0-3.28,1.17-3.28,3.28v98.48c0,2.11,1.17,3.28,3.28,3.28h2.81c2.11,0,3.28-1.17,3.28-3.28v-39.86c0-1.41.94-2.34,2.34-2.34h32.36c1.4,0,2.34.94,2.34,2.34v48.3c0,16.42-8.91,25.32-25.32,25.32h-32.83Z"/>
          </g>
        </g>
        <g>
          <ellipse cx="224.64" cy="274.56" rx="28.06" ry="95.52" transform="translate(-119.96 190.33) rotate(-36.97)"/>
          <g>
            <g>
              <path d="M140.24,402.68l-10.87-8.27c-.78-.58-1.69-1.3-2.58-2.01-2.08-1.63-4.17-3.38-6.2-5.19-19.33-17.04-33.19-38.24-41.11-62.95-.79-2.45-1.53-4.99-2.22-7.57-.41-1.55-.79-3.08-1.15-4.62l-2.76-12,5.89-6.89c23.55-27.52,39.63-62.78,58.25-103.61l.24-.53c2.91-9.58,8.51-17.26,16.28-22.28,35.09-22.67,85.88,21.48,120.67,75.28,16.09,24.89,28.56,52.13,34.2,74.73,10.03,40.18-2.65,58.17-15.06,66.19-2.08,1.35-4.29,2.48-6.58,3.39-3.5,1.38-7.19,2.24-11.01,2.56l-.35.12-2.31.03h-.38s-1.75.02-1.75.02c-46.43.27-86.37.49-122.49,11.07l-8.71,2.55ZM112.51,309.29c.37,1.32.77,2.64,1.19,3.94,5.93,18.49,16.27,34.32,30.76,47.09,1.14,1.01,2.25,1.96,3.37,2.87,25.5-6.41,51.66-8.64,79.75-9.49-.36-.32-.71-.63-1.06-.95l-.75-.72-17.66-17.83-.18-.58c-.55-.64-1.07-1.24-1.58-1.85l-.7-.88-22.08-29.99c-7.8-12.06-14.57-24.25-20.09-36.2-3.93-8.5-7.21-16.86-9.73-24.79-12.31,25.58-24.96,48.71-41.25,69.38ZM250.95,326.37c5.02,4.49,9.27,7.65,12.67,9.84-2.01-13.14-9.57-36.98-29.58-67.92-20-30.93-38.64-47.61-49.8-54.83.11.72.23,1.46.37,2.21,1.23,6.82,4.22,18.2,11.5,33.94,4.81,10.42,10.75,21.12,17.66,31.79l3.2,4.56,17.17,23c.42.5.89,1.03,1.35,1.56l1.75,1.99,13.71,13.85Z"/>
              <path d="M228.93,343.36l-13.08-15.1c-1.47-1.69-2.94-3.43-4.39-5.2-6.78-8.2-13.51-17.41-19.89-27.27-6.31-9.73-11.95-19.64-16.78-29.44-.99-2.01-1.95-4.02-2.88-6.03l-8.43-18.12,18.91-6.47c22.69-7.76,48.68,2.57,63.24,25.1,14.57,22.51,13.31,50.46-3.05,67.95l-13.64,14.59Z"/>
              <path d="M72.37,440.18c-9.63,0-19.22-3.23-27.1-9.62-17.92-14.51-30.02-33.24-35.96-55.67-4.79-18.09,2.54-37.07,18.26-47.23l67.95-43.93,6.05,24.46c.44,1.78.91,3.53,1.42,5.25.56,1.94,1.1,3.62,1.68,5.3,6.31,18.43,16.75,34.43,31.04,47.56,1.38,1.28,2.73,2.46,4.12,3.63,1.41,1.18,2.84,2.33,4.32,3.47l20.26,15.52-68.6,44.34c-7.18,4.64-15.32,6.93-23.43,6.93ZM74.39,340.2l-27.3,17.65c-2.61,1.69-3.82,4.83-3.03,7.84,3.95,14.91,11.97,27.33,23.83,36.94,2.4,1.95,5.77,2.12,8.39.43l27.49-17.77c-12.48-13.17-22.33-28.27-29.38-45.09Z"/>
              <path d="M175.87,506.34c-11.18,0-22.29-4.12-30.95-12.16l-78.85-73.21,74.89-48.43,70.14,79.64c5.64,6.41,8.21,14.93,7.04,23.39-1.17,8.46-5.96,15.96-13.13,20.6l-4.45,2.88c-7.58,4.9-16.16,7.3-24.7,7.3ZM124.39,426.06l44.99,41.77c2.58,2.4,6.21,3.14,9.44,2.08l-44.35-50.36-10.07,6.51Z"/>
            </g>
            <g>
              <path class="cls-1" d="M259.59,251.79c-29.15-45.08-72.64-84.91-95.82-69.94-4.61,2.98-7.58,7.59-9.13,13.43l-.78,1.72c-19.11,41.9-35.75,78.42-60.96,107.87l.71,3.1c.32,1.37.65,2.73,1.01,4.08.61,2.28,1.26,4.52,1.97,6.73,6.93,21.62,18.98,40.06,35.97,55.04,1.75,1.56,3.56,3.07,5.43,4.54.75.6,1.5,1.19,2.26,1.77l3.64,2.77c38.55-11.29,79.89-11.52,127.31-11.79h1.03s.64-.02.64-.02h.01c.13,0,.26,0,.39-.01,2.59-.04,5.05-.52,7.35-1.43,1.18-.47,2.32-1.05,3.43-1.77,23.16-14.98,4.68-70.98-24.48-116.07ZM276.14,358.03c-6.78,2.68-20.81-3.52-37.59-18.63l-8.9-9-1.81-1.83-3.85-3.88v-.03c-.69-.76-1.34-1.52-2.03-2.3-.62-.71-1.24-1.43-1.85-2.15l-.06-.07-17.5-23.44-2-2.69c-.62-.94-1.25-1.87-1.87-2.83-7.76-12-14-23.45-18.89-34.01-6.81-14.72-10.97-27.75-12.87-38.25-.33-1.79-.58-3.5-.78-5.15-.14-1.22-.24-2.38-.33-3.5-.02-.04-.02-.08,0-.12-.06-1.16-.11-2.27-.12-3.33,0-.54,0-1.05.03-1.56,0-.51.03-1.01.07-1.49h0c.08-.96.17-1.88.31-2.74.06-.37.12-.72.19-1.07.06-.29.12-.56.18-.83.05-.21.1-.42.16-.62.18-.63.37-1.2.58-1.74.04-.09.06-.17.08-.25.02-.02.03-.04.04-.06.78-1.9,1.86-3.3,3.18-4.16.37-.25.76-.45,1.18-.61,11.78-4.66,45.52,17.47,77.45,66.85,33.08,51.16,38.7,92.07,28.16,98.88-.36.24-.75.44-1.16.61Z"/>
              <path class="cls-1" d="M188.2,252.73c.87,1.88,1.77,3.76,2.71,5.67,4.47,9.07,9.76,18.38,15.74,27.62,5.98,9.24,12.29,17.89,18.74,25.68,1.34,1.64,2.7,3.23,4.05,4.79,10.38-11.1,11.22-30.25,1.08-45.92-10.12-15.66-27.94-22.76-42.33-17.84Z"/>
              <path class="cls-1" d="M128.24,383.68c-1.6-1.36-3.17-2.73-4.7-4.14-16.56-15.22-28.58-33.64-35.88-54.97-.67-1.96-1.31-3.93-1.89-5.95-.6-2-1.14-4.04-1.66-6.11l-46.79,30.25c-9.16,5.92-13.44,17-10.64,27.54,4.94,18.66,15,34.25,29.9,46.3,8.46,6.85,20.3,7.48,29.46,1.56l47.17-30.49c-1.7-1.3-3.35-2.62-4.97-3.99Z"/>
              <path class="cls-1" d="M137.71,396.04l-42.48,27.47,61.92,57.49c9.23,8.57,23.07,9.78,33.65,2.94l4.46-2.88c2.77-1.79,4.62-4.7,5.07-7.97.45-3.27-.54-6.57-2.72-9.04l-59.9-68.01Z"/>
            </g>
            <g>
              <path class="cls-2" d="M259.59,251.79c-29.15-45.08-72.64-84.91-95.82-69.94-4.61,2.98-7.58,7.59-9.13,13.43l-.78,1.72c-19.11,41.9-35.75,78.42-60.96,107.87l.71,3.1c.32,1.37.65,2.73,1.01,4.08.61,2.28,1.26,4.52,1.97,6.73,6.93,21.62,18.98,40.06,35.97,55.04,1.75,1.56,3.56,3.07,5.43,4.54.75.6,1.5,1.19,2.26,1.77l3.64,2.77c38.55-11.29,79.89-11.52,127.31-11.79h1.03s.64-.02.64-.02h.01c.13,0,.26,0,.39-.01,2.59-.04,5.05-.52,7.35-1.43,1.18-.47,2.32-1.05,3.43-1.77,23.16-14.98,4.68-70.98-24.48-116.07ZM276.14,358.03c-6.78,2.68-20.81-3.52-37.59-18.63l-8.9-9-1.81-1.83-3.85-3.88v-.03c-.69-.76-1.34-1.52-2.03-2.3-.62-.71-1.24-1.43-1.85-2.15l-.06-.07-17.5-23.44-2-2.69c-.62-.94-1.25-1.87-1.87-2.83-7.76-12-14-23.45-18.89-34.01-6.81-14.72-10.97-27.75-12.87-38.25-.33-1.79-.58-3.5-.78-5.15-.14-1.22-.24-2.38-.33-3.5-.02-.04-.02-.08,0-.12-.06-1.16-.11-2.27-.12-3.33,0-.54,0-1.05.03-1.56,0-.51.03-1.01.07-1.49h0c.08-.96.17-1.88.31-2.74.06-.37.12-.72.19-1.07.06-.29.12-.56.18-.83.05-.21.1-.42.16-.62.18-.63.37-1.2.58-1.74.04-.09.06-.17.08-.25.02-.02.03-.04.04-.06.78-1.9,1.86-3.3,3.18-4.16.37-.25.76-.45,1.18-.61,11.78-4.66,45.52,17.47,77.45,66.85,33.08,51.16,38.7,92.07,28.16,98.88-.36.24-.75.44-1.16.61Z"/>
              <path class="cls-2" d="M188.2,252.73c.87,1.88,1.77,3.76,2.71,5.67,4.47,9.07,9.76,18.38,15.74,27.62,5.98,9.24,12.29,17.89,18.74,25.68,1.34,1.64,2.7,3.23,4.05,4.79,10.38-11.1,11.22-30.25,1.08-45.92-10.12-15.66-27.94-22.76-42.33-17.84Z"/>
              <path class="cls-2" d="M128.24,383.68c-1.6-1.36-3.17-2.73-4.7-4.14-16.56-15.22-28.58-33.64-35.88-54.97-.67-1.96-1.31-3.93-1.89-5.95-.6-2-1.14-4.04-1.66-6.11l-46.79,30.25c-9.16,5.92-13.44,17-10.64,27.54,4.94,18.66,15,34.25,29.9,46.3,8.46,6.85,20.3,7.48,29.46,1.56l47.17-30.49c-1.7-1.3-3.35-2.62-4.97-3.99Z"/>
              <path class="cls-2" d="M137.71,396.04l-42.48,27.47,61.92,57.49c9.23,8.57,23.07,9.78,33.65,2.94l4.46-2.88c2.77-1.79,4.62-4.7,5.07-7.97.45-3.27-.54-6.57-2.72-9.04l-59.9-68.01Z"/>
            </g>
          </g>
        </g>
      </g>
    </g>
  </g>
</svg>